<?xml version="1.0" standalone="no"?><!DOCTYPE svg PUBLIC "-//W3C//DTD SVG 1.1//EN" "http://www.w3.org/Graphics/SVG/1.1/DTD/svg11.dtd"><svg xmlns:xlink="http://www.w3.org/1999/xlink" xmlns="http://www.w3.org/2000/svg" version="1.1" width="200" height="200" viewBox="0 0 200 200"><defs><style type="text/css"><![CDATA[
@font-face {
  font-family: "ifont";
  src: url("//at.alicdn.com/t/font_1442373896_4754455.eot?#iefix") format("embedded-opentype"), url("//at.alicdn.com/t/font_1442373896_4754455.woff") format("woff"), url("//at.alicdn.com/t/font_1442373896_4754455.ttf") format("truetype"), url("//at.alicdn.com/t/font_1442373896_4754455.svg#ifont") format("svg");
}

]]></style></defs><g class="transform-group"><g transform="scale(0.1953125, 0.1953125)"><path d="M1017.472 157.248c0.064-0.832-0.064-1.6-0.064-2.432 0-1.024 0-1.984-0.128-3.008-0.064-0.512-0.064-1.024-0.192-1.536-0.064-0.32-0.192-0.576-0.256-0.896-0.064-0.192 0-0.384-0.064-0.576-0.256-0.704-0.768-1.216-1.024-1.856-0.256-0.576-0.256-1.28-0.576-1.856-0.128-0.256-0.384-0.384-0.576-0.64-0.256-0.448-0.512-0.896-0.832-1.344-0.128-0.128-0.128-0.32-0.256-0.512-0.128-0.128-0.32-0.192-0.384-0.384-0.576-0.704-1.28-1.216-1.92-1.792-0.704-0.64-1.344-1.344-2.112-1.92-0.256-0.192-0.384-0.448-0.64-0.64-0.192-0.128-0.384-0.128-0.512-0.192-0.256-0.128-0.512-0.32-0.768-0.448-0.768-0.384-1.6-0.576-2.432-0.896-0.896-0.384-1.792-0.704-2.752-0.96-0.512-0.128-0.96-0.32-1.472-0.384-0.256-0.064-0.512-0.064-0.768-0.128-0.832-0.064-1.664 0.128-2.496 0.128-1.024 0-1.984 0-2.944 0.128-0.512 0.064-0.96 0.064-1.408 0.192-0.32 0.064-0.64 0.192-1.024 0.256-0.128 0.064-0.32 0-0.448 0.064L20.352 445.056C19.776 445.248 19.456 445.632 18.944 445.824c-1.28 0.512-2.432 1.216-3.584 1.984C14.144 448.64 13.12 449.408 12.16 450.368 11.776 450.752 11.264 450.944 10.88 451.392 10.432 451.968 10.304 452.672 9.92 453.248 9.152 454.4 8.448 455.616 7.936 456.896 7.488 458.112 7.104 459.264 6.912 460.48c-0.256 1.28-0.384 2.496-0.384 3.84 0 1.344 0.192 2.688 0.448 4.032 0.128 0.704 0 1.408 0.256 2.112 0.128 0.384 0.512 0.512 0.64 0.896 1.216 3.2 2.88 6.208 5.696 8.512l159.296 131.968 0 209.408c0 0.256 0.128 0.448 0.128 0.704 0.064 1.472 0.512 2.816 0.832 4.224 0.32 1.152 0.448 2.368 0.96 3.456 0.448 1.024 1.28 1.856 1.92 2.816 0.832 1.216 1.6 2.496 2.752 3.52 0.192 0.192 0.256 0.384 0.448 0.576 0.96 0.832 2.112 1.216 3.136 1.856 0.896 0.512 1.728 1.216 2.688 1.6 2.368 0.96 4.864 1.472 7.36 1.472 2.88 0 5.568-0.64 8.064-1.728 0.576-0.256 1.024-0.768 1.6-1.088 1.92-1.024 3.648-2.24 5.12-3.776 0.128-0.192 0.384-0.256 0.512-0.384l110.592-127.616 208.448 177.408c0.384 0.32 0.896 0.448 1.344 0.768 0.32 0.256 0.512 0.64 0.896 0.896 0.384 0.256 0.832 0.128 1.216 0.32 3.072 1.728 6.336 2.816 9.728 2.816 3.136 0 6.144-0.832 8.96-2.24C550.4 886.4 551.04 885.632 551.872 885.056c1.408-0.96 2.88-1.728 4.032-3.072 0.384-0.448 0.448-0.96 0.768-1.408 0.256-0.32 0.64-0.448 0.832-0.768l456.896-713.92c0.128-0.128 0.128-0.32 0.192-0.512 0.192-0.256 0.32-0.512 0.512-0.768 0.384-0.704 0.512-1.536 0.832-2.304 0.384-0.96 0.768-1.856 1.024-2.88 0.128-0.512 0.32-0.96 0.384-1.472C1017.408 157.696 1017.408 157.44 1017.472 157.248zM536 838.464l-187.008-159.168 569.024-437.696L536 838.464zM195.328 577.92 67.904 472.32l742.784-236.672L195.328 577.92zM213.312 614.272l555.648-309.056-464.512 357.312c-0.576 0.448-0.832 1.024-1.28 1.536-0.512 0.512-1.152 0.704-1.664 1.28l-88.192 101.824L213.312 614.272z" fill="#272636"></path></g></g></svg>